# xmcd
#
# Track frame offsets:
#	150
#	18600
#	30737
#	48462
#	60900
#	92500
#	108925
#	121250
#	134375
#	145575
#	167400
#	184950
#	200037
#	209625
#	224125
#	233425
#	253250
#	264250
#	276600
#	288117
#
# Disc length: 4253 seconds
# Revision: 5
# Processed by: cddbd v1.5.2PL0 Copyright (c) Steve Scherf et al.
# Submitted via: dBpowerAMP V12.0
#
DISCID=2f109b14
DTITLE=Totta's Bluesband - Compilation Boogie
DYEAR=1988
DGENRE=Blues Rock
TTITLE0=We'll Play the Blues for You
TTITLE1=Combination Boogie
TTITLE2=Bad Bad Whiskey
TTITLE3=Too Late
TTITLE4=I'm Going Down
TTITLE5='see That My Grave Is Kept Clean
TTITLE6=I'm a Lover, Not a Fighter
TTITLE7=Person to Person
TTITLE8=I Live the Life I Love
TTITLE9=No Expectations
TTITLE10=Goin' Back to Memphis
TTITLE11=Last Time
TTITLE12=Blues Is Here to Stay
TTITLE13=The World's in a Tangle
TTITLE14=Saturday Night's Boogie Woogie Man
TTITLE15=Bring It on Home
TTITLE16=Just Like I Treat You
TTITLE17=Ain't Your Business
TTITLE18=Just Your Fool
TTITLE19=Double Trouble
EXTD=
EXTT0=
EXTT1=
EXTT2=
EXTT3=
EXTT4=
EXTT5=
EXTT6=
EXTT7=
EXTT8=
EXTT9=
EXTT10=
EXTT11=
EXTT12=
EXTT13=
EXTT14=
EXTT15=
EXTT16=
EXTT17=
EXTT18=
EXTT19=
PLAYORDER=
